<svg preserveAspectRatio="none" width="100%" height="100%" overflow="visible" style="display: block;" viewBox="0 0 42 41" fill="none" xmlns="http://www.w3.org/2000/svg">
<path id="Icon" d="M4.66667 41C3.38333 41 2.28472 40.5539 1.37083 39.6618C0.456945 38.7697 0 37.6972 0 36.4444V27.3333H4.66667V36.4444H14V41H4.66667ZM28 41V36.4444H37.3333V27.3333H42V36.4444C42 37.6972 41.5431 38.7697 40.6292 39.6618C39.7153 40.5539 38.6167 41 37.3333 41H28ZM0 13.6667V4.55556C0 3.30278 0.456945 2.23032 1.37083 1.33819C2.28472 0.446065 3.38333 0 4.66667 0H14V4.55556H4.66667V13.6667H0ZM37.3333 13.6667V4.55556H28V0H37.3333C38.6167 0 39.7153 0.446065 40.6292 1.33819C41.5431 2.23032 42 3.30278 42 4.55556V13.6667H37.3333ZM21 31.8889C17.7722 31.8889 15.0208 30.7785 12.7458 28.5576C10.4708 26.3368 9.33333 23.6509 9.33333 20.5C9.33333 17.3491 10.4708 14.6632 12.7458 12.4424C15.0208 10.2215 17.7722 9.11111 21 9.11111C24.2278 9.11111 26.9792 10.2215 29.2542 12.4424C31.5292 14.6632 32.6667 17.3491 32.6667 20.5C32.6667 23.6509 31.5292 26.3368 29.2542 28.5576C26.9792 30.7785 24.2278 31.8889 21 31.8889ZM21 27.3333C22.9444 27.3333 24.5972 26.669 25.9583 25.3403C27.3194 24.0116 28 22.3981 28 20.5C28 18.6019 27.3194 16.9884 25.9583 15.6597C24.5972 14.331 22.9444 13.6667 21 13.6667C19.0556 13.6667 17.4028 14.331 16.0417 15.6597C14.6806 16.9884 14 18.6019 14 20.5C14 22.3981 14.6806 24.0116 16.0417 25.3403C17.4028 26.669 19.0556 27.3333 21 27.3333Z" fill="var(--fill-0, #FF5722)"/>
</svg>
